<svg xmlns="http://www.w3.org/2000/svg" viewBox="0 0 1400 900">
<defs>
<linearGradient id="gold" x1="0" y1="0" x2="1" y2="1">
<stop offset="0" stop-color="#d4af37"/>
<stop offset="1" stop-color="#fff1b8"/>
</linearGradient>
<linearGradient id="dark" x1="0" y1="0" x2="1" y2="1">
<stop offset="0" stop-color="#0b0b0f"/>
<stop offset="1" stop-color="#1c1c24"/>
</linearGradient>
<filter id="blur" x="-40%" y="-40%" width="180%" height="180%">
<feGaussianBlur stdDeviation="40"/>
</filter>
</defs>

<rect width="1400" height="900" rx="60" fill="#ffffff"/>

<circle cx="280" cy="240" r="260" fill="#d4af37" opacity=".18" filter="url(#blur)"/>
<circle cx="1120" cy="260" r="300" fill="#000" opacity=".12" filter="url(#blur)"/>

<!-- Athlete silhouette -->
<g transform="translate(600,200) scale(1.1)">
<circle cx="120" cy="40" r="34" fill="url(#gold)"/>
<path d="M120 80c-40 20-70 80-90 140l40 20c20-40 40-80 60-100l20 60-40 220h60l20-180 40 180h60l-40-240 40-80c20 20 40 60 60 100l40-20c-20-60-50-120-90-140-20-10-40-10-60 0Z"
fill="url(#dark)"/>
</g>

<!-- Gold lines -->
<path d="M420 640c160-80 260-360 520-380" stroke="url(#gold)" stroke-width="10" fill="none" opacity=".6"/>
</svg>